# xmcd
#
# Track frame offsets:
# 150
# 5762
# 26965
# 48707
# 63045
# 73367
# 90140
# 102862
# 116857
# 128947
# 132682
# 152115
#
# Disc length: 2287 seconds
#
#
# Revision: 2
# Processed by: cddbd v1.5.1PL2 Copyright (c) Steve Scherf et al.
# Submitted via: FreeRIP 2.944 
#
DISCID=af08ed0c
DTITLE=Steve Miller Band - Fly Like an Eagle
DYEAR=1976
DGENRE=Rock
TTITLE0=Space Intro
TTITLE1=Fly Like an Eagle
TTITLE2=Wild Mountain Honey
TTITLE3=Serenade
TTITLE4=Dance, Dance, Dance
TTITLE5=Mercury Blues
TTITLE6=Take the Money and Run
TTITLE7=Rock'n Me
TTITLE8=You Send Me
TTITLE9=Blue Odyssey
TTITLE10=Sweet Maree
TTITLE11=The Window
EXTD=
EXTT0=
EXTT1=
EXTT2=
EXTT3=
EXTT4=
EXTT5=
EXTT6=
EXTT7=
EXTT8=
EXTT9=
EXTT10=
EXTT11=
PLAYORDER=
